# Blender v2.80 (sub 75) OBJ File: 'grass_x2.blend'
# www.blender.org
o Cube
v 0.000000 1.000000 -0.500000
v 0.000000 0.000000 -0.500000
v 0.000000 1.000000 0.500000
v 0.000000 0.000000 0.500000
v -0.500000 1.000000 0.000000
v -0.500000 0.000000 0.000000
v 0.500000 1.000000 0.000000
v 0.500000 0.000000 0.000000
vt 0.999900 0.000100
vt 0.999900 0.999900
vt 0.000100 0.999900
vt 0.000100 0.000100
vt 0.999900 0.000100
vt 0.999900 0.999900
vt 0.000100 0.999900
vt 0.000100 0.000100
vn 1.0000 0.0000 0.0000
vn 0.0000 0.0000 -1.0000
s off
f 2/1/1 1/2/1 3/3/1 4/4/1
f 6/5/2 5/6/2 7/7/2 8/8/2
