<?xml version="1.0" encoding="UTF-8" standalone="no"?>
<svg
   xmlns:dc="http://purl.org/dc/elements/1.1/"
   xmlns:cc="http://creativecommons.org/ns#"
   xmlns:rdf="http://www.w3.org/1999/02/22-rdf-syntax-ns#"
   xmlns:svg="http://www.w3.org/2000/svg"
   xmlns="http://www.w3.org/2000/svg"
   xmlns:sodipodi="http://sodipodi.sourceforge.net/DTD/sodipodi-0.dtd"
   xmlns:inkscape="http://www.inkscape.org/namespaces/inkscape"
   width="16"
   height="16"
   version="1.1"
   viewBox="0 0 16 16"
   id="svg2"
   inkscape:version="0.91 r13725"
   sodipodi:docname="icon_grass.svg">
  <metadata
     id="metadata12">
    <rdf:RDF>
      <cc:Work
         rdf:about="">
        <dc:format>image/svg+xml</dc:format>
        <dc:type
           rdf:resource="http://purl.org/dc/dcmitype/StillImage" />
        <dc:title></dc:title>
      </cc:Work>
    </rdf:RDF>
  </metadata>
  <defs
     id="defs10" />
  <sodipodi:namedview
     pagecolor="#ffffff"
     bordercolor="#666666"
     borderopacity="1"
     objecttolerance="10"
     gridtolerance="10"
     guidetolerance="10"
     inkscape:pageopacity="0"
     inkscape:pageshadow="2"
     inkscape:window-width="1920"
     inkscape:window-height="1017"
     id="namedview8"
     showgrid="true"
     inkscape:zoom="41.7193"
     inkscape:cx="8.5082021"
     inkscape:cy="7.1663773"
     inkscape:window-x="-8"
     inkscape:window-y="32"
     inkscape:window-maximized="1"
     inkscape:current-layer="svg2"
     inkscape:object-paths="false"
     inkscape:snap-smooth-nodes="false"
     inkscape:object-nodes="true"
     inkscape:snap-grids="false"
     inkscape:snap-to-guides="true">
    <inkscape:grid
       type="xygrid"
       id="grid4140" />
  </sodipodi:namedview>
  <path
     style="fill:#e0e0e0;fill-opacity:0.99607843;fill-rule:evenodd;stroke:none;stroke-width:1px;stroke-linecap:butt;stroke-linejoin:miter;stroke-opacity:1"
     d="M 3,15 C 3,15 3.1390243,13.835072 2.827418,12.420858 2.5397814,11.150462 1,9 1,9 1,9 2.9698195,10.552501 3.5930323,11.679078 4.5757909,13.021382 5,15 5,15 Z"
     id="path4142"
     inkscape:connector-curvature="0"
     sodipodi:nodetypes="cccccc" />
  <path
     style="fill:#e0e0e0;fill-opacity:0.99607843;fill-rule:evenodd;stroke:none;stroke-width:1px;stroke-linecap:butt;stroke-linejoin:miter;stroke-opacity:1"
     d="M 5,15 C 5,15 5.2636669,12.287637 5,10.513877 4.8082422,8.8359968 3.4793944,5 3.4793944,5 c 0,0 1.8082423,2.5214194 2.5206056,5 1,3.235912 1,5 1,5 z"
     id="path4144"
     inkscape:connector-curvature="0"
     sodipodi:nodetypes="cccccc" />
  <path
     style="fill:#e0e0e0;fill-opacity:0.99607843;fill-rule:evenodd;stroke:none;stroke-width:1px;stroke-linecap:butt;stroke-linejoin:miter;stroke-opacity:1"
     d="M 7,15 C 7,15 7.5561735,6.4731267 7.5731227,5.3205843 7.6578684,4.2019402 8,1.1355932 8,1.1355932 c 0,0 0.3992971,3.1361329 0.4501446,4.2886753 C 8.5857378,7.0852854 9,15 9,15 Z"
     id="path4146"
     inkscape:connector-curvature="0"
     sodipodi:nodetypes="cccccc" />
  <path
     style="fill:#e0e0e0;fill-opacity:0.99607843;fill-rule:evenodd;stroke:none;stroke-width:1px;stroke-linecap:butt;stroke-linejoin:miter;stroke-opacity:1"
     d="M 9,15 C 9,15 9.5761564,11.857317 10.007611,10.562952 10.747482,8.4130973 12,6 12,6 12,6 11.115351,9.5993511 10.923593,11.181353 10.659926,13.003052 11,15 11,15 Z"
     id="path4148"
     inkscape:connector-curvature="0"
     sodipodi:nodetypes="cccccc" />
  <path
     style="fill:#e0e0e0;fill-opacity:0.99607843;fill-rule:evenodd;stroke:none;stroke-width:1px;stroke-linecap:butt;stroke-linejoin:miter;stroke-opacity:1"
     d="m 11,15 c 0,0 -0.08106,-0.693375 0.733907,-2.395225 C 12.596817,10.735137 15,9 15,9 15,9 13.425134,10.982994 12.925634,12.583274 12.434254,14.309094 13,15 13,15 Z"
     id="path4148-1"
     inkscape:connector-curvature="0"
     sodipodi:nodetypes="cccccc" />
</svg>
